<?xml version="1.0" standalone="no"?><!DOCTYPE svg PUBLIC "-//W3C//DTD SVG 1.1//EN" "http://www.w3.org/Graphics/SVG/1.1/DTD/svg11.dtd"><svg t="1737250499531" class="icon" viewBox="0 0 1024 1024" version="1.1" xmlns="http://www.w3.org/2000/svg" p-id="2779" xmlns:xlink="http://www.w3.org/1999/xlink" width="200" height="200"><path d="M0 0m512 0l0 0q512 0 512 512l0 0q0 512-512 512l0 0q-512 0-512-512l0 0q0-512 512-512Z" fill="#FE3B30" opacity=".9" p-id="2780"></path><path d="M268.068571 483.876571C310.491429 429.494857 391.789714 402.285714 512 402.285714s201.508571 27.209143 243.931429 81.590857c7.826286 10.020571 12.068571 22.308571 12.068571 34.998858v32.731428a41.545143 41.545143 0 0 1-49.005714 40.886857l-86.345143-15.725714a28.452571 28.452571 0 0 1-23.222857-25.124571l-2.413715-24.173715a28.452571 28.452571 0 0 0-28.306285-25.6h-133.412572c-14.628571 0-26.843429 11.044571-28.306285 25.6l-2.413715 24.137143a28.452571 28.452571 0 0 1-23.222857 25.161143l-86.381714 15.725714A41.545143 41.545143 0 0 1 256 551.606857v-32.731428c0-12.653714 4.242286-24.978286 12.068571-34.998858z" fill="#FFFFFF" p-id="2781"></path></svg>